<?xml version="1.0" encoding="UTF-8"?>
<svg version="1.1" xmlns="http://www.w3.org/2000/svg" width="512" height="512">
<path d="M0 0 C-0.69243216 12.90141448 -1.40394487 25.80162257 -2.13965988 38.70064545 C-2.48070724 44.6905873 -2.8152359 50.6807437 -3.13476562 56.671875 C-3.44352157 62.45645536 -3.76953294 68.23983083 -4.10739899 74.02278137 C-4.23312315 76.2263638 -4.35268481 78.43030697 -4.46590424 80.63456726 C-4.6258772 83.72826928 -4.80795995 86.81994902 -4.99511719 89.91210938 C-5.03684052 90.81842102 -5.07856384 91.72473267 -5.12155151 92.6585083 C-5.50358594 98.47541028 -6.75596084 103.09771718 -10 108 C-11.9296875 109.62109375 -11.9296875 109.62109375 -13.875 110.4375 C-14.51179688 110.72496094 -15.14859375 111.01242187 -15.8046875 111.30859375 C-20.70590878 112.85221682 -25.53313012 113.12549421 -30.64330387 113.12863445 C-31.28862258 113.13038749 -31.93394129 113.13214053 -32.59881511 113.13394669 C-34.75796078 113.13859309 -36.9170387 113.13614472 -39.07618713 113.13371277 C-40.6411019 113.13558141 -42.2060162 113.13788233 -43.77092975 113.14057809 C-48.0689224 113.14669563 -52.36689559 113.14656256 -56.6648916 113.14538372 C-61.30091996 113.14517971 -65.93694208 113.15069841 -70.57296753 113.15544128 C-79.65377255 113.16374747 -88.73457107 113.16649609 -97.81537957 113.16705366 C-105.19410446 113.16752871 -112.57282722 113.16958289 -119.95155144 113.17275429 C-140.86369858 113.18155974 -161.77584059 113.18617368 -182.6879896 113.18542381 C-184.37903753 113.18536388 -184.37903753 113.18536388 -186.10424805 113.18530273 C-187.23298648 113.18526185 -188.36172492 113.18522097 -189.52466755 113.18517885 C-207.83088677 113.18477212 -226.13708544 113.19434891 -244.4432987 113.2084411 C-263.23223045 113.22279103 -282.02115216 113.22971209 -300.81008953 113.22884732 C-311.36189735 113.22851494 -321.91368363 113.2312803 -332.46548653 113.24202538 C-341.44630832 113.25111206 -350.42709878 113.25332065 -359.40792317 113.24651595 C-363.99178439 113.24324183 -368.57558543 113.24322615 -373.15944099 113.2518692 C-377.35317534 113.25969557 -381.54680141 113.2583426 -385.74053299 113.24958507 C-387.2599485 113.24804155 -388.77937195 113.24989806 -390.29877812 113.25544515 C-392.36016329 113.26247421 -394.42116536 113.25723634 -396.48253727 113.24888897 C-397.62869827 113.24910634 -398.77485928 113.24932371 -399.95575243 113.24954766 C-403.08453871 112.99307006 -405.23036011 112.46364463 -408 111 C-410.25998546 107.61002182 -410.24691524 106.46614754 -410.23046875 102.49609375 C-410.22853516 100.81338379 -410.22853516 100.81338379 -410.2265625 99.09667969 C-410.20722656 97.28538574 -410.20722656 97.28538574 -410.1875 95.4375 C-410.18105469 94.20290039 -410.17460937 92.96830078 -410.16796875 91.69628906 C-410.06565108 79.12080802 -409.59362431 66.56083782 -409 54 C-407.20179779 54.44911815 -405.40362737 54.89836361 -403.60546875 55.34765625 C-402.50380371 55.6223877 -401.40213867 55.89711914 -400.26708984 56.18017578 C-398.33620352 56.66470098 -396.40636604 57.15349629 -394.47900391 57.65185547 C-371.35853737 63.61700446 -346.88229909 66.63631017 -323 67 C-321.83581543 67.02046387 -320.67163086 67.04092773 -319.47216797 67.06201172 C-240.54317184 68.24413928 -160.78090414 56.17085018 -64 26 C-62.83758789 25.61344238 -61.67517578 25.22688477 -60.47753906 24.82861328 C-41.07406068 18.29054745 -22.10918578 10.35191801 -3.94116211 0.89160156 C-2 0 -2 0 0 0 Z " fill="#00A535" transform="translate(455,235)"/>
<path d="M0 0 C0.08331635 8.29687583 -0.15339984 16.53341096 -0.62109375 24.81640625 C-0.71741844 26.58297829 -0.71741844 26.58297829 -0.81568909 28.38523865 C-0.95116501 30.85676547 -1.0882245 33.32820595 -1.22680664 35.79956055 C-1.43711463 39.55561745 -1.64179848 43.31194997 -1.84570312 47.06835938 C-1.97883424 49.48439334 -2.11228696 51.90040961 -2.24609375 54.31640625 C-2.3065538 55.42504532 -2.36701385 56.53368439 -2.42930603 57.67591858 C-2.54816203 59.77929967 -2.67959734 61.88201745 -2.82516479 63.98371887 C-2.9423679 66.00572301 -2.99679583 68.03227467 -2.99050903 70.05766296 C-3.13521347 77.04423127 -3.13521347 77.04423127 -5.47703552 79.63243103 C-7.56785729 81.01018907 -9.63956789 82.01795697 -11.9375 83.01171875 C-12.732771 83.39568314 -13.52804199 83.77964752 -14.34741211 84.17524719 C-16.88123018 85.38689287 -19.43804544 86.53673856 -22 87.6875 C-23.7231859 88.50068703 -25.44456863 89.31770682 -27.1640625 90.13867188 C-39.53656973 96 -39.53656973 96 -41 96 C-41.02505615 95.33057373 -41.0501123 94.66114746 -41.07592773 93.97143555 C-41.19347076 90.87666906 -41.31546486 87.78209248 -41.4375 84.6875 C-41.47681641 83.63498047 -41.51613281 82.58246094 -41.55664062 81.49804688 C-41.83098364 74.63947152 -42.30680652 67.82901897 -43 61 C-43.30067383 62.21582764 -43.60134766 63.43165527 -43.91113281 64.68432617 C-45.04636797 69.21763616 -46.24709684 73.73144925 -47.46777344 78.24243164 C-47.98564277 80.19219998 -48.48593523 82.14672918 -48.96777344 84.10571289 C-52.96196492 100.26739511 -52.96196492 100.26739511 -57.62280273 104.22973633 C-60.73481527 105.53616892 -63.70504439 106.28211969 -67 107 C-69.26482144 107.8570174 -71.51629051 108.75005408 -73.75390625 109.67578125 C-76.02275622 110.55644469 -78.29229154 111.43534447 -80.5625 112.3125 C-81.72330078 112.76689453 -82.88410156 113.22128906 -84.08007812 113.68945312 C-85.18931641 114.11806641 -86.29855469 114.54667969 -87.44140625 114.98828125 C-88.43857666 115.37540283 -89.43574707 115.76252441 -90.46313477 116.16137695 C-93 117 -93 117 -96 117 C-98.64 98.19 -101.28 79.38 -104 60 C-106.64 80.46 -109.28 100.92 -112 122 C-130.81 122.495 -130.81 122.495 -150 123 C-142.25874154 55.92219191 -142.25874154 55.92219191 -138.9463501 28.10272217 C-138.69098802 25.95543122 -138.43671089 23.80801096 -138.18353271 21.66046143 C-137.83512367 18.70815324 -137.48265738 15.75635967 -137.12890625 12.8046875 C-137.02821335 11.94546692 -136.92752045 11.08624634 -136.82377625 10.20098877 C-136.43612079 6.99937723 -136.02282632 4.06847896 -135 1 C-116.19 1 -97.38 1 -78 1 C-75.70145603 14.79126381 -75.70145603 14.79126381 -74.9296875 21.609375 C-74.84373322 22.34706116 -74.75777893 23.08474731 -74.66921997 23.8447876 C-74.40169419 26.14621289 -74.13825632 28.44808287 -73.875 30.75 C-73.69168007 32.33336506 -73.50808811 33.91669865 -73.32421875 35.5 C-72.87968256 39.33297856 -72.43880536 43.16636132 -72 47 C-69.81318516 41.36312682 -67.95743687 35.71901432 -66.30078125 29.90625 C-66.0608696 29.07411987 -65.82095795 28.24198975 -65.57377625 27.38464355 C-64.8170178 24.75728078 -64.06468685 22.12867479 -63.3125 19.5 C-62.79651755 17.70564471 -62.28024425 15.91137304 -61.76367188 14.1171875 C-60.50575205 9.74575049 -59.25179813 5.37319376 -58 1 C-52.79378797 0.85423072 -47.58749356 0.71202046 -42.38110352 0.57275391 C-40.61935973 0.52516942 -38.85763949 0.47670293 -37.09594727 0.42724609 C-24.72716465 0.0808212 -12.3735643 -0.06343159 0 0 Z " fill="#000000" transform="translate(440,152)"/>
<path d="M0 0 C9.81498763 -0.06987204 19.62991494 -0.12299861 29.44510174 -0.15543652 C34.00393725 -0.1710143 38.56260112 -0.19210626 43.12133789 -0.22631836 C47.53043591 -0.25919596 51.93937006 -0.27691213 56.34858131 -0.28463173 C58.02088814 -0.29012476 59.69318719 -0.3008494 61.3654232 -0.31719017 C75.11464186 -0.44605773 88.7756589 -0.00794041 100 9 C105.71908169 14.85236538 109.0364257 21.62282156 109.4375 29.8125 C109.11764425 38.86580836 105.41181072 47.58818928 99 54 C95.78087928 56.52517853 92.45690567 58.8138146 89 61 C89.86625 61.969375 90.7325 62.93875 91.625 63.9375 C99.85651166 73.57344018 103.58553601 81.35913146 103.37109375 94.23828125 C102.5439898 102.62250336 98.29591362 108.592142 92.2421875 114.24609375 C84.05166934 120.65296248 74.76095166 123.32414766 64.49438477 123.22705078 C63.2639016 123.22748886 63.2639016 123.22748886 62.00856018 123.22793579 C59.31939816 123.22655164 56.63051938 123.21103384 53.94140625 123.1953125 C52.06811169 123.19157911 50.19481516 123.18873368 48.32151794 123.18673706 C43.40766951 123.17912624 38.4939406 123.15949978 33.58013916 123.1373291 C28.55930193 123.11681558 23.53844525 123.10772359 18.51757812 123.09765625 C8.6783331 123.07625139 -1.16082348 123.0421464 -11 123 C-11.11762435 115.5368402 -10.79839114 108.22155455 -10.09790039 100.79296875 C-10.00197098 99.73304214 -9.90604156 98.67311554 -9.8072052 97.58106995 C-9.49228137 94.11607605 -9.17017913 90.65179417 -8.84765625 87.1875 C-8.62551579 84.76663215 -8.40371425 82.34573318 -8.18223572 79.92480469 C-7.7188137 74.87128437 -7.25193926 69.81809881 -6.7824707 64.76513672 C-6.18025048 58.28128336 -5.58573539 51.79675135 -4.99364567 45.31196594 C-4.53740195 40.32243907 -4.07761844 35.33324349 -3.61669731 30.34414673 C-3.39603122 27.95196551 -3.17635857 25.55969245 -2.95768929 23.16732788 C-2.65248672 19.83517191 -2.34264667 16.50347991 -2.03149414 13.171875 C-1.94158203 12.18071182 -1.85166992 11.18954865 -1.7590332 10.16835022 C-1.673517 9.26298019 -1.58800079 8.35761017 -1.49989319 7.42480469 C-1.42707154 6.63805359 -1.3542499 5.85130249 -1.27922153 5.04071045 C-1 3 -1 3 0 0 Z M35 26 C34.66068773 28.66602496 34.32842824 31.33263014 34 34 C33.85691406 35.11568359 33.85691406 35.11568359 33.7109375 36.25390625 C33.10772324 41.20888051 32.90924409 46.00842496 33 51 C50.50238359 53.59395937 50.50238359 53.59395937 67 49 C70.69368872 45.12162685 71.73356348 41.32660073 72.1015625 36.11328125 C71.91107548 32.14968593 70.07697258 30.03577947 67.32128906 27.38549805 C64.12558503 25.47809161 61.75126383 25.65994156 58.046875 25.70703125 C57.38665344 25.71127609 56.72643188 25.71552094 56.04620361 25.71989441 C53.94704609 25.73662565 51.84886504 25.77426449 49.75 25.8125 C48.32293058 25.82755416 46.89584604 25.84124129 45.46875 25.85351562 C41.97885183 25.88650999 38.4895213 25.93825257 35 26 Z M31 72 C30.66078548 75.18690233 30.32970583 78.37460104 30 81.5625 C29.90460938 82.45775391 29.80921875 83.35300781 29.7109375 84.27539062 C29.20432035 89.21490788 28.89102618 94.03488014 29 99 C32.9998593 99.08783475 36.99946704 99.14067102 41 99.1875 C42.12535156 99.21263672 43.25070313 99.23777344 44.41015625 99.26367188 C51.01809577 99.32163626 56.03708354 98.93612612 62 96 C66.41644183 91.47031607 67.40562536 87.44216936 67.35546875 81.29296875 C66.74644481 77.36442969 64.87581836 75.67517987 62 73 C58.64264863 71.88088288 56.11794614 71.88634414 52.58203125 71.90234375 C51.32841797 71.90556641 50.07480469 71.90878906 48.78320312 71.91210938 C46.81770508 71.92467773 46.81770508 71.92467773 44.8125 71.9375 C43.47721519 71.94251683 42.14192859 71.94707941 40.80664062 71.95117188 C37.53771527 71.96297305 34.26888009 71.97943703 31 72 Z " fill="#000000" transform="translate(68,152)"/>
<path d="M0 0 C2.63474959 0.03682904 5.26809391 0.04101535 7.90307617 0.04052734 C16.54685227 0.07769439 24.86513334 0.32180303 33.30737305 2.41162109 C31.04267082 11.90409638 28.58524505 21.20568269 25.30737305 30.41162109 C24.48237305 30.35103516 23.65737305 30.29044922 22.80737305 30.22802734 C20.35588411 30.05018495 17.90402279 29.87743637 15.4519043 29.70849609 C12.6757481 29.5156249 9.9039398 29.29348901 7.1315918 29.05224609 C-0.16902581 28.45358173 -6.58583646 28.25420255 -13.69262695 30.41162109 C-13.34732786 36.28170573 -11.85668188 38.60881648 -7.69262695 42.41162109 C-6.44507639 43.58593591 -5.19769242 44.76042771 -3.95043945 45.93505859 C-1.88584203 47.86148984 0.18106823 49.78540754 2.2487793 51.70849609 C26.06711925 73.93894672 26.06711925 73.93894672 27.30737305 89.41162109 C26.97327724 99.12514745 23.7064697 108.0161474 17.11987305 115.22412109 C4.9255898 126.34551676 -11.81529773 126.95266065 -27.44262695 126.78662109 C-28.18631531 126.78329773 -28.93000366 126.77997437 -29.69622803 126.77655029 C-43.89548375 126.70214471 -56.92888772 124.90572708 -70.69262695 121.41162109 C-69.23132188 111.50964342 -66.45889184 102.00908209 -63.69262695 92.41162109 C-60.022036 91.47623611 -57.51623372 91.43015853 -53.85668945 92.37255859 C-52.95692383 92.59685547 -52.0571582 92.82115234 -51.13012695 93.05224609 C-49.73793945 93.41576172 -49.73793945 93.41576172 -48.31762695 93.78662109 C-40.17802393 95.86142187 -32.45691475 97.54911052 -24.00512695 97.59912109 C-22.35963867 97.62039062 -22.35963867 97.62039062 -20.6809082 97.64208984 C-17.77747632 97.41816503 -16.14398929 96.92061056 -13.69262695 95.41162109 C-13.8417755 88.40163943 -16.93504565 84.39535503 -21.69262695 79.41162109 C-25.248816 76.26782144 -28.96043892 73.34254842 -32.69262695 70.41162109 C-43.58353741 61.65618328 -52.33350055 51.56637949 -54.69262695 37.41162109 C-55.29046965 27.92245821 -51.68541414 20.85804777 -46.50512695 13.16162109 C-33.87301983 0.81022747 -16.72383212 -0.24139752 0 0 Z " fill="#000000" transform="translate(250.692626953125,150.58837890625)"/>
<path d="M0 0 C0.38598853 15.96705874 -0.64311618 31.876524 -1.59912109 47.80639648 C-1.83143839 51.68077354 -2.05276594 55.55569144 -2.27113152 59.43087673 C-2.44307809 62.45716567 -2.62139961 65.48305467 -2.80151749 68.50886726 C-2.88568988 69.93706348 -2.96783397 71.36538097 -3.0477562 72.79382133 C-4.44884377 97.64755841 -4.44884377 97.64755841 -14.375 107.3125 C-22.67862472 112.65054446 -30.83166765 112.42884117 -40.36138916 112.38768005 C-41.93287084 112.39185575 -43.5043495 112.39733457 -45.07582259 112.40399987 C-49.38268374 112.41844136 -53.68935331 112.41421388 -57.99622488 112.40683305 C-62.64516587 112.4021007 -67.29406546 112.41461156 -71.94299316 112.42485046 C-81.04459621 112.4420402 -90.14613024 112.44287842 -99.24774531 112.43763756 C-106.64264615 112.43359636 -114.03752659 112.43503882 -121.43242645 112.44038582 C-123.01102414 112.44150845 -123.01102414 112.44150845 -124.6215127 112.44265376 C-126.7593775 112.44418522 -128.89724231 112.44572357 -131.03510711 112.44726873 C-151.07813614 112.46099343 -171.12112612 112.45555541 -191.16415426 112.44408352 C-209.51298423 112.43414253 -227.86171349 112.44710682 -246.21052793 112.47101771 C-265.04585771 112.49537807 -283.88114051 112.50502467 -302.71648574 112.49836498 C-313.29340403 112.49486705 -323.87024477 112.49714306 -334.44715118 112.51461601 C-343.44701934 112.52929935 -352.44675528 112.53002385 -361.44662073 112.5125451 C-366.04055921 112.50400233 -370.6342611 112.50196522 -375.22818756 112.51719666 C-379.42992704 112.53095583 -383.63122527 112.52639485 -387.83293864 112.50695742 C-389.35631244 112.50317008 -390.87972085 112.50619731 -392.40306404 112.51656907 C-394.46776603 112.52963189 -396.53092057 112.51825489 -398.59555435 112.50057125 C-399.74404869 112.50046391 -400.89254303 112.50035658 -402.07584023 112.50024599 C-405.6594875 111.88717922 -406.82650276 110.86681337 -409 108 C-409.75 104.75 -409.75 104.75 -410 102 C-406.49667201 99.84613672 -403.71392907 99.75461549 -399.64240646 99.76507759 C-398.32613573 99.76356229 -397.00986499 99.76204699 -395.65370727 99.76048577 C-394.18928285 99.76895583 -392.72485945 99.77760277 -391.26043701 99.78640747 C-389.70763746 99.78839903 -388.15483656 99.78949882 -386.60203576 99.78978145 C-382.32807143 99.79307866 -378.05422849 99.8088306 -373.78030276 99.82650495 C-369.17350942 99.84333934 -364.56670215 99.8485591 -359.95988464 99.85501099 C-351.9741473 99.86761869 -343.98845069 99.88710673 -336.00273895 99.91080093 C-324.44797326 99.94472435 -312.89321773 99.96385157 -301.33841327 99.97855841 C-282.58090276 100.00246322 -263.82340821 100.03236554 -245.06591797 100.06884766 C-243.94281669 100.0710279 -242.81971541 100.07320815 -241.66258076 100.07545446 C-225.72678392 100.1066703 -209.79100652 100.14385524 -193.85522857 100.18345021 C-192.1723958 100.18763015 -192.1723958 100.18763015 -190.45556641 100.19189453 C-188.77478159 100.19607512 -188.77478159 100.19607512 -187.06004152 100.20034017 C-168.37852306 100.24640544 -149.69701718 100.27703999 -131.01545072 100.29501331 C-119.48986582 100.30672314 -107.96445346 100.3314798 -96.43893656 100.37295888 C-88.54060228 100.40037104 -80.64232833 100.41336064 -72.74394694 100.41497912 C-68.18597057 100.4163875 -63.62825163 100.42438728 -59.07034111 100.4499054 C-54.89664457 100.47314961 -50.72334845 100.47789534 -46.54960266 100.46802102 C-45.04082662 100.46771875 -43.53203059 100.4741913 -42.02331933 100.48817517 C-34.12434962 100.55759689 -27.75715962 100.5076321 -21 96 C-16.41058399 91.0717186 -16.26263049 86.23317488 -15.9375 79.8125 C-15.86861572 78.74330322 -15.79973145 77.67410645 -15.72875977 76.57250977 C-15.51875956 73.22841905 -15.32783635 69.88396638 -15.14257812 66.53845215 C-14.85645018 61.44424783 -14.55122374 56.35114243 -14.25 51.2578125 C-13.84304271 44.37582859 -13.43916631 37.49375256 -13.05249023 30.6105957 C-12.99041382 29.51927338 -12.9283374 28.42795105 -12.86437988 27.30355835 C-12.74750498 25.24615363 -12.63246928 23.18864324 -12.51965332 21.13101196 C-12.19140691 15.39292676 -11.84563874 9.68748804 -11 4 C-9.00390625 2.24609375 -9.00390625 2.24609375 -6.5625 1.4375 C-5.75941406 1.14746094 -4.95632813 0.85742188 -4.12890625 0.55859375 C-2 0 -2 0 0 0 Z " fill="#FBD40B" transform="translate(468,250)"/>
<path d="M0 0 C6.6 0 13.2 0 20 0 C19.67 4.29 19.34 8.58 19 13 C22.63 13 26.26 13 30 13 C30.09254786 19.57089805 29.736663 25.37003298 29 32 C21.74 32 14.48 32 7 32 C7 32.66 7 33.32 7 34 C8.093125 34.28875 9.18625 34.5775 10.3125 34.875 C14 36 14 36 17 38 C17 40.64 17 43.28 17 46 C10.07 46 3.14 46 -4 46 C-3.67 41.38 -3.34 36.76 -3 32 C-6.96 32 -10.92 32 -15 32 C-14.77213542 29.98177083 -14.54427083 27.96354167 -14.31640625 25.9453125 C-13.8531223 21.6327681 -13.43158322 17.31583215 -13 13 C-6.07 13 0.86 13 8 13 C8 12.34 8 11.68 8 11 C5.36 10.34 2.72 9.68 0 9 C0 6.03 0 3.06 0 0 Z " fill="#F9FDFA" transform="translate(407,279)"/>
<path d="M0 0 C6.6 0 13.2 0 20 0 C19.67 4.29 19.34 8.58 19 13 C18.01 13 17.02 13 16 13 C16 11.68 16 10.36 16 9 C14.35 9.33 12.7 9.66 11 10 C10.34 12.31 9.68 14.62 9 17 C6.36 16.67 3.72 16.34 1 16 C1 15.34 1 14.68 1 14 C-3.29 14 -7.58 14 -12 14 C-11.938125 16.536875 -11.938125 16.536875 -11.875 19.125 C-11.86375105 23.48396997 -12.24716837 26.94657686 -14 31 C-10.37 31 -6.74 31 -3 31 C-3 31.33 -3 31.66 -3 32 C-6.96 32 -10.92 32 -15 32 C-14.77213542 29.98177083 -14.54427083 27.96354167 -14.31640625 25.9453125 C-13.8531223 21.6327681 -13.43158322 17.31583215 -13 13 C-6.07 13 0.86 13 8 13 C8 12.34 8 11.68 8 11 C5.36 10.34 2.72 9.68 0 9 C0 6.03 0 3.06 0 0 Z " fill="#E1FBE9" transform="translate(407,279)"/>
<path d="M0 0 C0.99 0.33 1.98 0.66 3 1 C3.33 2.98 3.66 4.96 4 7 C6.97 7.33 9.94 7.66 13 8 C13.0269412 11.10422449 13.04681048 14.20821574 13.0625 17.3125 C13.07087891 18.19357422 13.07925781 19.07464844 13.08789062 19.98242188 C13.09272461 21.25375977 13.09272461 21.25375977 13.09765625 22.55078125 C13.10551147 23.72120972 13.10551147 23.72120972 13.11352539 24.9152832 C13 27 13 27 12 30 C6.06 30 0.12 30 -6 30 C-6.33 30.66 -6.66 31.32 -7 32 C-9.475 31.01 -9.475 31.01 -12 30 C-12 29.34 -12 28.68 -12 28 C-4.74 28 2.52 28 10 28 C10 25.03 10 22.06 10 19 C10.23905848 15.64891237 10.62365168 12.34009137 11 9 C7.37 9 3.74 9 0 9 C0 6.03 0 3.06 0 0 Z " fill="#169D3B" transform="translate(426,283)"/>
<path d="M0 0 C0.33 0 0.66 0 1 0 C1 3.96 1 7.92 1 12 C6.94 12 12.88 12 19 12 C19 10.35 19 8.7 19 7 C18.01 6.67 17.02 6.34 16 6 C16.33 5.34 16.66 4.68 17 4 C17.99 4.66 18.98 5.32 20 6 C20 8.64 20 11.28 20 14 C13.07 14 6.14 14 -1 14 C-0.67 9.38 -0.34 4.76 0 0 Z " fill="#BEF4CB" transform="translate(404,311)"/>
<path d="M0 0 C0.67289062 0.04382813 1.34578125 0.08765625 2.0390625 0.1328125 C8.90265938 0.61920913 8.90265938 0.61920913 11.625 1.625 C11.955 2.285 12.285 2.945 12.625 3.625 C5.695 3.625 -1.235 3.625 -8.375 3.625 C-8.375 4.945 -8.375 6.265 -8.375 7.625 C-9.365 7.295 -10.355 6.965 -11.375 6.625 C-11.375 5.965 -11.375 5.305 -11.375 4.625 C-10.715 4.625 -10.055 4.625 -9.375 4.625 C-9.375 3.305 -9.375 1.985 -9.375 0.625 C-6.33706369 -0.89396816 -3.29830094 -0.24987128 0 0 Z " fill="#19A43F" transform="translate(402.375,288.375)"/>
<path d="M0 0 C7.26 0 14.52 0 22 0 C22 0.33 22 0.66 22 1 C20.85660156 1.04898437 19.71320313 1.09796875 18.53515625 1.1484375 C17.04424527 1.22345189 15.55336108 1.29900028 14.0625 1.375 C12.93038086 1.42140625 12.93038086 1.42140625 11.77539062 1.46875 C9.84492605 1.5726315 7.92057919 1.77895614 6 2 C5.67 2.66 5.34 3.32 5 4 C2.525 3.01 2.525 3.01 0 2 C0 1.34 0 0.68 0 0 Z " fill="#2D9B4E" transform="translate(414,311)"/>
<path d="M0 0 C0.33 0 0.66 0 1 0 C1 2.97 1 5.94 1 9 C1.99 9.33 2.98 9.66 4 10 C3.34 10 2.68 10 2 10 C2 10.66 2 11.32 2 12 C0.68 12.33 -0.64 12.66 -2 13 C-1.34 8.71 -0.68 4.42 0 0 Z " fill="#ECCC18" transform="translate(452,331)"/>
</svg>
